<svg width="96" height="96" viewBox="0 0 96 96" fill="none" xmlns="http://www.w3.org/2000/svg">
<g clip-path="url(#clip0_178_1787)">
<path d="M71.6087 70.2642C71.7396 71.8991 71.755 78.0939 64.6712 79.6561C64.7546 80.703 64.5716 81.754 64.1393 82.7111C63.707 83.6683 63.0395 84.5004 62.199 85.1301C58.6439 87.7305 51.9183 87.2267 42.1124 83.6577C36.4152 81.3257 27.8095 78.2119 20.6836 73.2804L32.9646 39.5385C34.8775 37.951 37.6388 37.1762 39.5008 35.8637C46.9464 30.7603 53.4274 25.5519 56.8593 17.5664C58.0208 14.8146 59.3637 13.593 60.8686 13.9377C61.0701 13.9926 65.2034 15.1955 66.4261 19.3073C67.6992 23.5851 65.3045 29.2349 59.2958 36.0918C57.7965 37.7502 56.7019 39.7335 56.0979 41.8861C56.0868 41.9552 56.0904 42.0258 56.1085 42.0934C56.1265 42.161 56.1587 42.2241 56.2027 42.2785C56.2468 42.3328 56.3019 42.3773 56.3643 42.4089C56.4267 42.4406 56.4951 42.4587 56.565 42.4621C60.8304 42.9133 74.9758 44.8873 77.8169 51.483C78.8811 53.9683 78.2589 56.7933 75.9612 59.8945C76.4689 61.8611 76.3182 63.9399 75.5321 65.8127C74.746 67.6855 73.3679 69.2491 71.6087 70.2642Z" fill="#BDBDBD"/>
<path d="M30.4741 36.2889L21.8091 33.1351C20.6179 32.7015 19.3009 33.3157 18.8674 34.5068L6.2662 69.1282C5.83266 70.3194 6.44681 71.6364 7.63795 72.07L16.3029 75.2238C17.4941 75.6573 18.8111 75.0432 19.2447 73.852L31.8458 39.2306C32.2794 38.0395 31.6652 36.7224 30.4741 36.2889Z" fill="#BDBDBD"/>
</g>
<defs>
<clipPath id="clip0_178_1787">
<rect width="74" height="74" fill="white" transform="translate(25.8828 0.57666) rotate(20)"/>
</clipPath>
</defs>
</svg>
