<svg width="104" height="104" viewBox="0 0 104 104" fill="none" xmlns="http://www.w3.org/2000/svg">
<g clip-path="url(#clip0_178_1790)">
<path d="M51.5347 9.6028C50.7239 9.8979 50.3057 10.7947 50.6008 11.6055L53.0591 18.3595C53.3542 19.1703 54.251 19.5885 55.0618 19.2934C55.8725 18.9983 56.2907 18.1015 55.9956 17.2907L53.5374 10.5367C53.2423 9.72589 52.3455 9.3077 51.5347 9.6028Z" fill="#868686"/>
<path d="M34.4409 67.7044C33.6304 67.9994 33.2121 68.8966 33.5071 69.707C33.8021 70.5175 34.6993 70.9359 35.5097 70.6409C36.3202 70.3459 36.7386 69.4487 36.4436 68.6382C36.1486 67.8277 35.2514 67.4094 34.4409 67.7044Z" fill="#868686"/>
<path d="M87.6952 44.9947C86.5165 41.7563 82.9229 40.0806 79.6845 41.2592L68.7236 45.2487C68.8385 40.2846 67.6632 34.9185 65.8732 30.4126C65.5317 29.5527 65.3154 29.0623 65.1552 28.7623C63.9246 25.6174 60.388 24.0061 57.1995 25.1666C53.9611 26.3453 52.2853 29.9389 53.464 33.1773L53.9984 34.6455C57.3783 43.9318 47.3529 53.4894 39.1682 59.0021C37.9217 57.6943 35.9718 57.1694 34.1681 57.8258L19.4854 63.1699C18.6747 63.465 18.2565 64.3618 18.5516 65.1726L31.3773 100.411C31.6724 101.222 32.5692 101.64 33.38 101.345L48.0627 96.0009C49.8543 95.3488 51.0069 93.7109 51.1342 91.9217C51.9489 91.8416 52.7064 91.7705 53.4056 91.7049C59.0194 91.1779 62.1117 90.8874 68.9797 88.3877L84.7695 82.6407C88.0079 81.462 89.6836 77.8684 88.5049 74.63C88.0654 73.4225 87.29 72.4327 86.3225 71.7266C88.3019 70.1078 89.1755 67.3356 88.235 64.7516C87.7971 63.5485 87.0293 62.5517 86.0622 61.8407C88.0311 60.2242 88.9057 57.4573 87.9651 54.8731C87.5256 53.6656 86.7502 52.6758 85.7827 51.9698C87.7621 50.3509 88.6357 47.5787 87.6952 44.9947ZM47.9278 91.0616C48.2224 91.8712 47.8035 92.7696 46.9939 93.0643L33.7795 97.874L22.0225 65.572L35.237 60.7624C36.0466 60.4677 36.945 60.8866 37.2396 61.6962L47.9278 91.0616ZM82.8909 50.0689C79.7417 51.2151 78.9909 51.4884 75.5496 52.7409C74.7388 53.036 74.3206 53.9328 74.6157 54.7436C74.9108 55.5544 75.8076 55.9725 76.6184 55.6774L81.0232 54.0742C82.6424 53.4849 84.4392 54.3227 85.0286 55.9419C85.6189 57.5638 84.7827 59.357 83.1608 59.9473L75.8195 62.6193C75.0087 62.9144 74.5905 63.8112 74.8856 64.622C75.1807 65.4328 76.0775 65.851 76.8883 65.5559L81.2931 63.9526C82.8931 63.3703 84.6949 64.162 85.2985 65.8204C85.8888 67.4422 85.0526 69.2354 83.4307 69.8257C80.2815 70.972 79.5307 71.2452 76.0894 72.4978C75.2786 72.7929 74.8604 73.6897 75.1555 74.5004C75.4506 75.3112 76.3474 75.7294 77.1582 75.4343L81.563 73.8311C83.1822 73.2417 84.979 74.0796 85.5684 75.6988C86.1577 77.318 85.3199 79.1148 83.7006 79.7042L67.9109 85.4512C61.4201 87.8136 58.644 88.0743 53.1135 88.5935C52.3034 88.6696 51.4147 88.7531 50.4482 88.8495L40.605 61.8057C50.3094 55.4073 60.9276 44.5463 56.935 33.5767L56.4006 32.1085C55.8112 30.4893 56.6491 28.6925 58.2683 28.1031C59.8846 27.5148 61.6805 28.3507 62.272 29.9663L62.2736 29.9708C62.5059 30.6089 66.1526 38.1504 65.5413 46.407L60.597 48.2065C59.7862 48.5016 59.368 49.3984 59.6631 50.2092C59.9582 51.02 60.855 51.4382 61.6658 51.1431C62.6911 50.7699 79.0798 44.8049 80.7533 44.1958C82.3725 43.6064 84.1693 44.4443 84.7587 46.0635C85.349 47.6854 84.5128 49.4786 82.8909 50.0689Z" fill="#868686"/>
<path d="M36.5776 73.5774C35.7669 73.8725 35.3487 74.7693 35.6438 75.5801L39.919 87.3262C40.2141 88.137 41.1109 88.5552 41.9217 88.2601C42.7325 87.965 43.1507 87.0682 42.8556 86.2574L38.5803 74.5113C38.2852 73.7005 37.3884 73.2823 36.5776 73.5774Z" fill="#868686"/>
<path d="M46.5249 32.3783L40.6519 34.5159C39.8411 34.811 39.4229 35.7078 39.718 36.5186C40.0131 37.3293 40.9099 37.7475 41.7207 37.4524L47.5938 35.3148C48.4045 35.0197 48.8227 34.1229 48.5276 33.3121C48.2325 32.5013 47.3357 32.0832 46.5249 32.3783Z" fill="#868686"/>
<path d="M75.8882 21.6898L70.0151 23.8274C69.2044 24.1225 68.7862 25.0193 69.0813 25.8301C69.3764 26.6409 70.2732 27.059 71.084 26.7639L76.957 24.6263C77.7678 24.3312 78.186 23.4344 77.8909 22.6236C77.5958 21.8129 76.699 21.3947 75.8882 21.6898Z" fill="#868686"/>
<path d="M67.3894 11.1626C66.6073 10.7981 65.6779 11.1364 65.3128 11.9184L62.672 17.5818C62.3073 18.3638 62.6457 19.2935 63.4278 19.6583C64.2101 20.0229 65.1393 19.6845 65.5043 18.9025L68.1452 13.2392C68.5099 12.4571 68.1715 11.5274 67.3894 11.1626Z" fill="#868686"/>
<path d="M48.135 22.8718L42.4717 20.231C41.6895 19.8665 40.7601 20.2048 40.3951 20.9868C40.0304 21.7688 40.3688 22.6985 41.1509 23.0633L46.8143 25.7042C47.5968 26.0687 48.526 25.7304 48.8908 24.9484C49.2555 24.1664 48.9171 23.2367 48.135 22.8718Z" fill="#868686"/>
</g>
<defs>
<clipPath id="clip0_178_1790">
<rect width="80" height="80" fill="white" transform="translate(0.734375 28.0933) rotate(-20)"/>
</clipPath>
</defs>
</svg>
