<svg width="147" height="123" viewBox="0 0 147 123" fill="none" xmlns="http://www.w3.org/2000/svg">
<path fill-rule="evenodd" clip-rule="evenodd" d="M27.0138 111.674C26.9682 111.595 26.9835 111.547 27.0323 111.515L27.0354 111.527C27.029 111.548 27.0344 111.57 27.0538 111.584L27.0721 111.642C27.1727 111.959 27.6085 112.587 27.81 112.846C28.1795 113.317 28.2236 112.607 28.6889 112.648C28.9534 112.669 28.6675 112.333 29.0029 112.153C29.43 111.898 29.4736 111.942 29.8126 111.58C30.2189 111.141 30.2903 110.623 30.5597 110.089C30.8584 109.214 31.1983 108.436 31.4108 107.535C31.886 105.547 32.0542 103.51 32.2539 101.473C32.9138 94.7633 32.9737 88.0021 33.295 81.2793C33.417 78.5178 33.6359 61.1971 35.2303 54.4417C35.2958 54.1697 35.3985 53.8392 35.4811 53.5905C38.5877 54.6031 45.285 63.7292 46.7447 64.9784C52.1216 69.5959 57.5276 74.2025 62.8554 78.8874C66.3925 81.9991 69.8906 85.1469 73.3338 88.3518C74.21 89.2022 76.1184 91.7144 77.7488 92.9548C78.883 93.8183 80.0538 94.1883 81.013 94.2727C82.082 94.3658 83.0416 93.9815 83.9156 93.2642C84.8852 92.4663 85.6972 89.3943 85.8343 88.7414C86.2323 86.8919 89.0715 81.5898 92.626 74.5282C97.7407 64.3627 104.803 51.049 110.236 39.6111C112.561 34.717 114.575 30.1744 116.026 26.3681C117.731 21.9046 118.636 18.5212 119.027 16.8865C119.584 15.4389 118.859 13.8105 117.413 13.2558C115.963 12.6974 114.339 13.4227 113.782 14.8718C113.102 16.09 111.465 18.2547 109.511 21.4241C107.754 24.2807 105.712 27.8191 103.569 31.8213C100.665 37.2311 97.698 43.5029 94.6548 49.7209C90.9001 57.3879 87.1892 65.0628 84.3412 71.4862C82.057 76.6356 80.3149 81.0272 79.311 84.0129C78.7781 83.6825 78.3166 83.4045 78.0902 83.2034L51.22 59.7543C49.4771 58.2607 43.2426 51.5683 38.6592 48.8851C35.9248 47.2868 33.4112 47.0715 31.7665 47.7946C31.1278 48.0775 30.4379 48.5793 29.859 49.4483C29.1367 50.5288 28.3999 52.97 27.9444 56.1835C26.7856 64.354 26.5684 78.4654 26.4634 80.981C26.21 87.6627 25.7985 94.3655 25.6349 101.064C25.5851 103.069 25.481 105.065 25.6294 107.068C25.6946 107.97 25.9056 108.78 26.0398 109.676C26.1165 110.035 26.1186 110.366 26.2646 110.703C26.4953 111.226 26.7269 111.258 27.0138 111.674ZM35.2685 53.5298C34.693 53.4074 34.2636 53.6124 34.0475 54.2679C33.9791 54.4733 34.403 54.1486 34.5443 54.0826C34.7244 54.0059 35.0311 53.7469 35.2685 53.5298ZM28.064 111.19L28.121 111.218C28.0962 111.172 28.0687 111.147 28.044 111.169L28.0247 111.184L28.064 111.19ZM27.7397 111.182L27.8399 111.171C27.7764 111.136 27.7247 111.101 27.6979 111.181L27.69 111.194L27.7397 111.182ZM27.0138 111.674L27.0881 111.783C27.0541 111.74 27.0279 111.705 27.0138 111.674Z" fill="#FF7332"/>
<path fill-rule="evenodd" clip-rule="evenodd" d="M111.849 20.1648C112.71 24.6652 113.489 30.9206 114.276 36.5825C114.641 39.2167 115.04 41.6951 115.373 43.8463C115.488 44.5957 115.593 45.2885 115.747 45.9313C115.988 46.9242 116.244 47.6722 116.539 48.3561C116.663 48.6418 116.805 48.7219 116.96 48.9425C117.444 49.6289 117.937 50.0803 118.37 50.3648C118.368 50.4054 118.378 50.4462 118.4 50.4842C118.535 50.7634 118.724 50.8708 118.804 50.9866C118.947 51.1927 118.982 51.0495 119.137 51.1869C119.649 51.6442 119.329 51.3354 121.277 50.0564C121.689 49.7892 121.735 49.6905 122.133 49.1877C122.397 48.8556 122.482 48.5063 122.679 48.0218C122.994 47.2563 123.233 46.4431 123.414 45.3864C123.709 43.6838 123.699 41.6485 123.675 39.4301C123.584 30.6501 122.101 19.1949 120.865 14.0912C120.062 10.7708 118.39 9.0433 117.624 8.55857C116.609 7.915 115.021 7.36407 112.883 7.96656C111.51 8.35495 108.836 9.79156 105.833 12.2417C103.832 13.8693 101.553 15.8993 99.3298 18.1565C93.3531 24.2318 87.6224 31.3712 85.9579 33.1284C85.1408 33.7953 85.0198 35.0009 85.6867 35.816C86.3553 36.634 87.5582 36.7552 88.3753 36.0883C90.371 34.8463 97.6715 30.1474 104.483 25.3854C107.153 23.5178 109.704 21.6471 111.849 20.1648ZM114.718 18.2626C115.491 18.4876 116.064 18.4512 115.768 17.6952C115.656 17.4106 115.181 17.9152 114.718 18.2626Z" fill="#FF7332"/>
</svg>
