<svg width="77" height="78" viewBox="0 0 77 78" fill="none" xmlns="http://www.w3.org/2000/svg">
<g clip-path="url(#clip0_178_1785)">
<path d="M54.3419 16.306C51.795 14.6693 48.7718 13.9363 45.758 14.2246C42.7443 14.513 39.915 15.806 37.7246 17.8959C35.7586 19.7513 34.296 22.2054 33.4286 25.0713C30.9199 23.4279 28.2221 22.4881 25.5254 22.336C22.5041 22.143 19.5056 22.9712 17.0116 24.6875C14.5176 26.4038 12.6729 28.9086 11.7738 31.7995C10.8234 34.8416 10.9461 38.1666 12.1281 41.414C13.8291 46.0875 18.4824 50.2003 25.9601 53.6442C32.0527 56.4487 38.667 58.1542 42.0663 58.921C43.2632 59.189 44.5118 59.1084 45.6644 58.6889C46.817 58.2694 47.8253 57.5285 48.57 56.5538C50.6789 53.7822 54.6516 48.2234 57.5161 42.1587C61.0315 34.7162 61.9517 28.5723 60.2506 23.8988C59.0687 20.6514 57.0254 18.0254 54.3419 16.306Z" fill="white"/>
</g>
<defs>
<clipPath id="clip0_178_1785">
<rect width="60" height="60" fill="white" transform="translate(0 20.9414) rotate(-20)"/>
</clipPath>
</defs>
</svg>
