<svg width="284" height="408" viewBox="0 0 284 408" fill="none" xmlns="http://www.w3.org/2000/svg">
<line x1="80.5" y1="2.18558e-08" x2="80.5" y2="408" stroke="#F1CF7E"/>
<line x1="-38" y1="49.5" x2="284" y2="49.5" stroke="#F1CF7E"/>
<path d="M80.5 39L83.336 46.664L91 49.5L83.336 52.336L80.5 60L77.664 52.336L70 49.5L77.664 46.664L80.5 39Z" fill="#F0B428"/>
<path d="M240.5 39L243.336 46.664L251 49.5L243.336 52.336L240.5 60L237.664 52.336L230 49.5L237.664 46.664L240.5 39Z" fill="#F0B428"/>
<path d="M80.5 199L83.336 206.664L91 209.5L83.336 212.336L80.5 220L77.664 212.336L70 209.5L77.664 206.664L80.5 199Z" fill="#F0B428"/>
<path d="M80.5 359L83.336 366.664L91 369.5L83.336 372.336L80.5 380L77.664 372.336L70 369.5L77.664 366.664L80.5 359Z" fill="#F0B428"/>
</svg>
