<svg width="139" height="139" viewBox="0 0 139 139" fill="none" xmlns="http://www.w3.org/2000/svg">
<g clip-path="url(#clip0_1_2750)">
<path d="M7.93291 43.5378L7.93621 43.5312H7.93951L7.94281 43.5246C10.4511 41.0065 15.6887 39.716 19.659 39.5246C20.8735 39.4652 21.9857 39.5015 22.8768 39.6368C24.0022 39.8019 24.9065 40.155 25.4511 40.6929C25.7745 41.0131 25.9857 41.386 26.0715 41.8151L36.5369 68.1781C36.6062 68.353 36.6425 68.5345 36.6491 68.7127V68.7358V68.8217C36.5501 71.6335 29.5072 78.716 27.3686 80.8646L27.3488 80.8844C26.7877 81.4586 30.1111 85.7821 34.692 91.0395C36.8174 93.4751 39.2398 96.0527 41.7448 98.5477C44.2432 101.039 46.8108 103.436 49.2234 105.521C54.2267 109.841 58.2597 112.921 58.7778 112.409C59.791 111.379 62.0385 109.132 64.3125 107.125C66.8009 104.927 69.4016 103.026 70.8933 103.082C71.1078 103.092 71.3092 103.138 71.4907 103.221L97.7547 113.66C98.1805 113.746 98.5534 113.95 98.8702 114.271C99.4082 114.808 99.7613 115.723 99.9329 116.865C100.065 117.766 100.101 118.891 100.042 120.119C99.8438 124.102 98.5567 129.337 96.0385 131.855C96.0055 131.888 95.9725 131.917 95.9395 131.947C84.3059 143.568 65.725 139.716 48.0352 128.469C41.1243 124.072 34.3356 118.538 28.1606 112.366C21.9857 106.195 16.428 99.386 11.9758 92.4388C0.368552 74.3398 -3.77006 55.2177 7.93291 43.5378ZM19.8075 42.6929C16.4346 42.858 12.0814 43.858 10.1837 45.7755L10.1771 45.7821C-0.258511 56.188 3.8141 73.8283 14.6458 90.7226C18.9824 97.485 24.3917 104.109 30.3983 110.115C36.4049 116.119 43.0121 121.505 49.7382 125.782C66.2267 136.267 83.3521 140.053 93.7184 129.68C93.7415 129.653 93.7646 129.627 93.7877 129.604C95.7052 127.686 96.7052 123.343 96.8702 119.97C96.923 118.957 96.8933 118.043 96.7844 117.327C96.7382 117.006 96.6953 116.769 96.6623 116.637L70.6128 106.284C69.9329 106.508 68.2168 107.907 66.4148 109.498C64.23 111.426 62.0187 113.64 61.0286 114.647L61.0154 114.66C59.0286 116.634 53.4148 113.333 47.1474 107.921C44.6755 105.785 42.0517 103.333 39.5072 100.799C36.9626 98.2639 34.4874 95.6302 32.3059 93.1286C26.7118 86.7094 23.1705 80.8712 25.0088 78.7458C25.0319 78.716 25.0583 78.6863 25.088 78.6599V78.6566L25.0946 78.6533L25.121 78.6269C26.9857 76.7523 33.0154 70.6863 33.4544 68.9999L23.0913 42.9009C22.9593 42.8679 22.7283 42.8283 22.4148 42.7821C21.7052 42.6764 20.8042 42.6434 19.8075 42.6929Z" fill="#272727"/>
<path d="M75.16 69.1254C77.4438 72.4818 78.688 75.4752 78.6583 78.2112C78.6451 79.7788 78.2326 81.2277 77.3844 82.5643C80.8663 81.934 83.5956 80.5412 85.7144 78.8845C88.6286 76.6072 90.4207 73.8251 91.4273 71.8416C91.7112 71.2805 92.2788 70.9571 92.8663 70.9604C104.639 70.5379 115.203 66.5643 122.804 60.3828C130.259 54.3201 134.84 46.1287 134.84 37.1122C134.84 27.8218 129.982 19.3894 122.13 13.264C114.163 7.0495 103.13 3.20462 90.9257 3.20462C78.721 3.20462 67.6979 7.0462 59.7408 13.2574C51.896 19.3828 47.0445 27.8185 47.0445 37.1122C47.0445 44.0429 49.7408 50.4785 54.358 55.8317C59.1864 61.4224 66.1105 65.8383 74.2689 68.4224C74.6583 68.5445 74.9653 68.802 75.16 69.1254ZM75.4669 78.1848C75.4867 76.2475 74.5329 73.9703 72.7705 71.3069C64.2821 68.5214 57.0478 63.8383 51.9422 57.9208C46.8233 51.9934 43.8398 44.8383 43.8398 37.1122C43.8398 26.7855 49.1633 17.4653 57.7771 10.7426C66.2788 4.10231 77.9983 0 90.9257 0C103.853 0 115.586 4.10561 124.097 10.7459C132.714 17.4686 138.048 26.7888 138.048 37.1122C138.048 47.1386 133.011 56.2013 124.82 62.8614C116.893 69.3102 105.982 73.5082 93.8399 74.1155C92.6253 76.3003 90.6649 79.0693 87.6814 81.4026C84.2854 84.0528 79.5956 86.132 73.226 86.132V86.1221C72.7243 86.1221 72.2326 85.8878 71.9224 85.4488C71.4141 84.7293 71.5857 83.7326 72.3052 83.2244C74.4537 81.7062 75.4471 80.0495 75.4669 78.1848Z" fill="#272727"/>
<path d="M56.8992 44.8414C57.0444 45.2573 56.8299 45.7094 56.414 45.8546C56.0015 46.0031 55.546 45.7853 55.4008 45.3695C54.919 44.0097 54.5658 42.6401 54.3381 41.2738C53.3546 35.3563 54.6846 29.518 57.6384 24.6731C60.5922 19.8348 65.1632 15.9866 70.6615 14.0361C71.9817 13.5675 73.3546 13.2078 74.7738 12.9734C75.2061 12.9008 75.6153 13.1945 75.6879 13.6269C75.7606 14.0592 75.4668 14.4685 75.0345 14.5411C73.711 14.7622 72.4239 15.0955 71.1896 15.5345C66.0444 17.3596 61.7606 20.9668 58.9949 25.5015C56.2325 30.0328 54.985 35.4883 55.9058 41.013C56.1203 42.287 56.447 43.5675 56.8992 44.8414Z" fill="#272727"/>
<path d="M28.9893 39.7428C28.7649 39.2048 29.0223 38.5844 29.5603 38.36C30.1016 38.1355 30.722 38.393 30.9431 38.9309L42.0091 65.525C42.2336 66.0629 41.9761 66.6834 41.4349 66.9078C40.8969 67.1322 40.2765 66.8781 40.052 66.3368L28.9893 39.7428Z" fill="#272727"/>
<path d="M73.6094 99.7823C73.0714 99.5579 72.8206 98.9374 73.045 98.3994C73.2728 97.8615 73.8932 97.6107 74.4312 97.8351L100.286 108.789C100.824 109.017 101.075 109.634 100.85 110.172C100.623 110.71 100.002 110.964 99.4675 110.736L73.6094 99.7823Z" fill="#272727"/>
<path d="M72.333 28.373C74.6663 28.373 76.7785 29.3169 78.3066 30.8483C79.838 32.3763 80.7819 34.4886 80.7819 36.8219C80.7819 39.1552 79.838 41.2674 78.3066 42.7988C76.7785 44.3268 74.6663 45.274 72.333 45.274C69.9997 45.274 67.8875 44.3268 66.3561 42.7988C64.8281 41.2674 63.8809 39.1552 63.8809 36.8219C63.8809 34.4886 64.8281 32.3763 66.3561 30.8483C67.8875 29.3169 69.9997 28.373 72.333 28.373ZM76.8083 32.3466C75.663 31.2014 74.0822 30.4919 72.333 30.4919C70.5838 30.4919 69.003 31.2014 67.8578 32.3466C66.7125 33.4919 66.003 35.0727 66.003 36.8219C66.003 38.5711 66.7125 40.1519 67.8578 41.2971C69.003 42.4424 70.5838 43.1519 72.333 43.1519C74.0822 43.1519 75.663 42.4424 76.8083 41.2971C77.9535 40.1519 78.663 38.5711 78.663 36.8219C78.663 35.0727 77.9535 33.4919 76.8083 32.3466ZM113.363 28.373C115.696 28.373 117.808 29.3169 119.34 30.8483C120.868 32.3763 121.812 34.4886 121.812 36.8219C121.812 39.1552 120.868 41.2674 119.34 42.7988C117.808 44.3268 115.696 45.274 113.363 45.274C111.029 45.274 108.917 44.3268 107.389 42.7988C105.858 41.2674 104.914 39.1552 104.914 36.8219C104.914 34.4886 105.858 32.3763 107.389 30.8483C108.917 29.3169 111.029 28.373 113.363 28.373ZM117.838 32.3466C116.693 31.2014 115.112 30.4919 113.363 30.4919C111.614 30.4919 110.033 31.2014 108.887 32.3466C107.742 33.4919 107.033 35.0727 107.033 36.8219C107.033 38.5711 107.742 40.1519 108.887 41.2971C110.033 42.4424 111.614 43.1519 113.363 43.1519C115.112 43.1519 116.693 42.4424 117.838 41.2971C118.983 40.1519 119.693 38.5711 119.693 36.8219C119.693 35.0727 118.983 33.4919 117.838 32.3466ZM92.8479 28.373C95.1812 28.373 97.2934 29.3169 98.8215 30.8483C100.353 32.3763 101.297 34.4886 101.297 36.8219C101.297 39.1552 100.353 41.2674 98.8215 42.7988C97.2934 44.3268 95.1812 45.274 92.8479 45.274C90.5145 45.274 88.4023 44.3268 86.871 42.7988C85.3429 41.2674 84.3957 39.1552 84.3957 36.8219C84.3957 34.4886 85.3429 32.3763 86.871 30.8483C88.4023 29.3169 90.5145 28.373 92.8479 28.373ZM97.3231 32.3466C96.1779 31.2014 94.597 30.4919 92.8479 30.4919C91.0987 30.4919 89.5178 31.2014 88.3726 32.3466C87.2274 33.4919 86.5178 35.0727 86.5178 36.8219C86.5178 38.5711 87.2274 40.1519 88.3726 41.2971C89.5178 42.4424 91.0987 43.1519 92.8479 43.1519C94.597 43.1519 96.1779 42.4424 97.3231 41.2971C98.4683 40.1519 99.1779 38.5711 99.1779 36.8219C99.1779 35.0727 98.4683 33.4919 97.3231 32.3466Z" fill="#272727"/>
</g>
<defs>
<clipPath id="clip0_1_2750">
<rect width="139" height="139" fill="white"/>
</clipPath>
</defs>
</svg>
