<svg width="27" height="22" viewBox="0 0 27 22" fill="none" xmlns="http://www.w3.org/2000/svg">
<path fill-rule="evenodd" clip-rule="evenodd" d="M0.458453 10.5849C0.487589 10.6257 0.519179 10.6759 0.554206 10.7371C0.700759 10.993 0.440684 10.6593 0.615905 10.9503C0.66814 11.0371 0.69309 11.0503 0.810728 11.1089C1.04101 11.2235 1.37245 11.2426 1.702 11.2721C2.04623 11.3027 2.36492 11.2759 2.47399 11.2864C3.07462 11.3277 3.67098 11.3867 4.27221 11.409C5.66137 11.4598 7.05219 11.4261 8.44441 11.4665C10.0393 11.4968 11.6331 11.5555 13.2288 11.5804C14.2956 11.5973 15.3605 11.6095 16.4271 11.5944C19.1091 11.5565 21.7668 11.4168 24.4414 11.2722C24.5784 11.275 24.6917 11.166 24.6944 11.0293C24.6972 10.8926 24.5879 10.7792 24.4509 10.7765C22.2158 10.566 20.004 10.2986 17.7687 10.0654C16.813 9.96519 15.8611 9.86655 14.9032 9.79107C12.7754 9.62394 10.6431 9.53011 8.51293 9.4189C7.10376 9.3656 5.69651 9.2973 4.28973 9.32402C3.68796 9.3359 3.09098 9.38696 2.48944 9.41797C2.35655 9.42859 1.96382 9.44834 1.55523 9.55723C1.24891 9.63826 0.935515 9.70169 0.74044 9.85133C-0.0800914 10.4826 0.25899 11.0079 0.458453 10.5849Z" fill="#454545"/>
<path fill-rule="evenodd" clip-rule="evenodd" d="M23.9168 10.8178C23.7721 10.9618 23.6099 11.1136 23.4318 11.2151C22.7022 11.6312 21.7825 12.0593 20.939 12.5365C20.3257 12.8827 19.7556 13.2491 19.2882 13.6015C19.0974 13.7454 18.9154 13.8727 18.7768 14.0236C18.4448 14.3847 18.2074 14.6921 18.2007 14.9869C18.1991 15.0583 18.1779 15.0944 18.2139 15.1477C18.3248 15.3126 18.2075 15.1791 18.3656 15.28C18.3601 15.3058 18.3766 15.3317 18.4025 15.3371C18.4285 15.3429 18.454 15.3267 18.46 15.3012C18.6503 15.2832 18.4482 15.3744 18.636 15.307C18.701 15.2839 18.7489 15.2911 18.8188 15.2462C19.0245 15.1125 19.3123 15.0154 19.6808 14.8471C20.2228 14.5989 20.8879 14.2989 21.5932 13.9868C22.6455 13.5204 23.7423 12.9895 24.5636 12.5345C25.1998 12.1811 25.6741 11.8216 25.9119 11.5243C26.167 11.2066 26.2371 10.8832 26.2175 10.6023C26.2071 10.4527 26.1506 10.2528 25.9766 10.0441C25.873 9.91967 25.6196 9.71586 25.2348 9.49518C23.8264 8.6858 20.1119 7.12891 19.5906 6.86508L15.6623 5.19935C15.4279 5.06801 15.1303 5.1512 14.9983 5.38547C14.8667 5.62044 14.95 5.91779 15.1846 6.04948C16.0108 6.6406 16.8102 7.23985 17.6581 7.80042C18.0241 8.04263 18.399 8.26386 18.7755 8.48892C19.2435 8.72278 22.3052 10.0043 23.9168 10.8178Z" fill="#454545"/>
</svg>
