<svg width="25" height="25" viewBox="0 0 25 25" fill="none" xmlns="http://www.w3.org/2000/svg">
<path d="M2.08331 9.5179C2.08331 14.5835 6.27022 17.2828 9.33512 19.6989C10.4166 20.5515 11.4583 21.3543 12.5 21.3543C13.5416 21.3543 14.5833 20.5515 15.6648 19.6989C18.7297 17.2828 22.9166 14.5835 22.9166 9.5179C22.9166 4.45234 17.1873 0.85995 12.5 5.72992C7.81265 0.85995 2.08331 4.45234 2.08331 9.5179Z" fill="#FB2B37"/>
<path d="M9.33512 19.6989L8.8708 20.2879L9.33512 19.6989ZM12.5 5.72992L11.9596 6.25002C12.101 6.39691 12.2961 6.47992 12.5 6.47992C12.7039 6.47992 12.899 6.39691 13.0403 6.25002L12.5 5.72992ZM15.6648 19.6989L15.2005 19.1099L15.6648 19.6989ZM9.79943 19.1099C8.22248 17.8668 6.49264 16.6488 5.12066 15.1039C3.7744 13.588 2.83331 11.8166 2.83331 9.5179H1.33331C1.33331 12.2847 2.48568 14.3958 3.99909 16.1C5.48679 17.7752 7.38286 19.1149 8.8708 20.2879L9.79943 19.1099ZM2.83331 9.5179C2.83331 7.26572 4.10597 5.37543 5.84569 4.5802C7.53813 3.80658 9.80789 4.01446 11.9596 6.25002L13.0403 5.20982C10.5047 2.57541 7.56616 2.1445 5.2221 3.21597C2.92532 4.26584 1.33331 6.70452 1.33331 9.5179H2.83331ZM8.8708 20.2879C9.40467 20.7088 9.97579 21.1559 10.5541 21.4939C11.1322 21.8317 11.7887 22.1043 12.5 22.1043V20.6043C12.1695 20.6043 11.7845 20.4755 11.3109 20.1988C10.8376 19.9222 10.3471 19.5417 9.79943 19.1099L8.8708 20.2879ZM16.1292 20.2879C17.6171 19.1149 19.5132 17.7752 21.0009 16.1C22.5143 14.3958 23.6666 12.2847 23.6666 9.5179H22.1666C22.1666 11.8166 21.2256 13.588 19.8793 15.1039C18.5073 16.6488 16.7775 17.8668 15.2005 19.1099L16.1292 20.2879ZM23.6666 9.5179C23.6666 6.70452 22.0746 4.26584 19.7779 3.21597C17.4338 2.1445 14.4952 2.57541 11.9596 5.20982L13.0403 6.25002C15.1921 4.01446 17.4618 3.80658 19.1543 4.5802C20.894 5.37543 22.1666 7.26572 22.1666 9.5179H23.6666ZM15.2005 19.1099C14.6529 19.5417 14.1624 19.9222 13.6891 20.1988C13.2155 20.4755 12.8304 20.6043 12.5 20.6043V22.1043C13.2112 22.1043 13.8678 21.8317 14.4459 21.4939C15.0242 21.1559 15.5953 20.7088 16.1292 20.2879L15.2005 19.1099Z" fill="#FB2B37"/>
</svg>
