<svg width="20" height="20" viewBox="0 0 20 20" fill="none" xmlns="http://www.w3.org/2000/svg">
<g clip-path="url(#clip0_1_2895)">
<path d="M16.595 4.575C16.5794 4.5975 15.2088 6.57687 11.8375 7.95375C12.0356 8.36125 12.2281 8.77563 12.4056 9.19187C12.4688 9.34125 12.5306 9.4875 12.59 9.63437C15.5237 9.265 18.4137 9.88562 18.5375 9.91187C18.5169 7.8875 17.7925 6.03 16.595 4.575ZM13.11 10.9825C14.23 14.0606 14.685 16.5675 14.7719 17.0825C16.6887 15.7888 18.0513 13.7344 18.4312 11.3544C18.255 11.2969 15.8663 10.5406 13.11 10.9825ZM13.3337 17.8625C13.2075 17.1162 12.7119 14.5013 11.51 11.3781C11.4906 11.385 11.4719 11.3906 11.4525 11.3975C6.41437 13.1531 4.76875 16.6931 4.75125 16.7325C6.20062 17.86 8.01937 18.5406 10 18.5406C11.1825 18.5394 12.3088 18.2987 13.3337 17.8625ZM11.18 6.68125C14.4019 5.47375 15.6181 3.62188 15.6394 3.59062C14.1363 2.265 12.1619 1.46125 10 1.46125C9.30625 1.46125 8.6325 1.545 7.9875 1.70062C8.11562 1.87187 9.71938 4 11.18 6.68125ZM10.9275 9.96313C10.7131 9.4775 10.4794 8.99125 10.235 8.51188C5.8375 9.82875 1.61875 9.73375 1.4675 9.72812C1.465 9.81938 1.46 9.90812 1.46 10C1.46 12.1938 2.2875 14.1944 3.64812 15.705C3.645 15.7013 5.9825 11.555 10.5906 10.0644C10.7013 10.0281 10.815 9.995 10.9275 9.96313ZM19.7956 7.98688C19.9306 8.64437 20 9.32187 20 10C20 10.6769 19.9312 11.3531 19.7956 12.0125C19.6637 12.6562 19.4681 13.2881 19.2125 13.8925C18.9625 14.4856 18.6531 15.0575 18.2906 15.5906C17.9338 16.1206 17.5225 16.6169 17.0706 17.0706C16.6175 17.5212 16.12 17.9319 15.5912 18.2913C15.0569 18.6513 14.485 18.9606 13.8925 19.2125C13.2888 19.4675 12.6562 19.6625 12.0138 19.7944C11.3544 19.9306 10.6769 20 10 20C9.32187 20 8.64437 19.9312 7.98625 19.7944C7.34312 19.6625 6.71063 19.4669 6.10687 19.2125C5.51375 18.9606 4.94187 18.6513 4.4075 18.2913C3.87875 17.9325 3.38125 17.5212 2.92937 17.0706C2.47687 16.6169 2.06625 16.1206 1.70875 15.5906C1.34812 15.0575 1.0375 14.485 0.786875 13.8925C0.53125 13.2888 0.335 12.6562 0.2025 12.0125C0.068125 11.3537 0 10.6775 0 10C0 9.32187 0.068125 8.64437 0.2025 7.98688C0.335 7.34313 0.530625 6.71063 0.78625 6.1075C1.0375 5.51313 1.3475 4.94125 1.70812 4.40812C2.065 3.8775 2.47687 3.38188 2.92875 2.92812C3.38063 2.47688 3.87812 2.0675 4.40688 1.70875C4.94125 1.34687 5.51313 1.03625 6.10625 0.785C6.71 0.529375 7.3425 0.33375 7.98563 0.2025C8.64437 0.068125 9.32187 0 10 0C10.6769 0 11.3544 0.068125 12.0138 0.203125C12.6562 0.334375 13.2881 0.53 13.8925 0.785625C14.4856 1.03688 15.0569 1.3475 15.5912 1.70937C16.12 2.0675 16.6181 2.4775 17.0706 2.92875C17.5219 3.3825 17.9338 3.87812 18.2906 4.40875C18.6531 4.94187 18.9631 5.51437 19.2125 6.10812C19.4688 6.71062 19.6644 7.34313 19.7956 7.98688ZM9.5275 7.19688C8.04938 4.57063 6.47 2.4275 6.35625 2.27625C3.97438 3.40062 2.1975 5.59562 1.64312 8.24C1.86812 8.24125 5.42688 8.28625 9.5275 7.19688Z" fill="white"/>
</g>
<defs>
<clipPath id="clip0_1_2895">
<rect width="20" height="20" fill="white"/>
</clipPath>
</defs>
</svg>
