<svg width="24" height="24" viewBox="0 0 24 24" fill="none" xmlns="http://www.w3.org/2000/svg">
<path fill-rule="evenodd" clip-rule="evenodd" d="M15.3978 4.09444C16.0761 4.55293 16.3601 5.37646 16.1649 6.12607L16.7728 6.53698C17.4511 6.99547 17.7351 7.81897 17.54 8.5686L17.6286 8.62852C18.7757 9.40395 19.077 10.9625 18.3016 12.1096L14.7916 17.3022C12.853 20.17 8.95677 20.9233 6.08894 18.9848L5.27042 18.4315C3.80742 17.4426 2.82948 15.8824 2.57712 14.1346L1.87101 9.24442C1.73895 8.3298 2.29104 7.45484 3.17339 7.1803L3.4679 7.08868C4.43909 6.7865 5.45298 7.31138 5.79112 8.23357C5.82555 8.32747 5.85297 8.4255 5.87263 8.52712L6.14688 9.9456L10.0079 4.23373C10.5895 3.37339 11.7584 3.14739 12.6187 3.72895L13.2266 4.13988C13.8495 3.67939 14.7195 3.63595 15.3978 4.09444ZM12.0415 12.4171L15.5515 7.22451L16.0708 7.57552C16.2953 7.72725 16.5901 7.92652 16.2391 8.44582L12.729 13.6384L13.7676 14.3404L16.9266 9.66705C17.5002 10.0547 17.6508 10.834 17.2631 11.4076L13.7531 16.6002C12.2022 18.8944 9.08517 19.4971 6.79094 17.9463L5.97242 17.393C4.80203 16.6018 4.01968 15.3537 3.81779 13.9555L3.11168 9.06532C3.06766 8.76045 3.25169 8.46877 3.54581 8.37727L3.84031 8.28562C4.19701 8.17462 4.57098 8.39835 4.64189 8.7651L4.91614 10.1836C5.01238 10.6813 5.39901 11.0722 5.89574 11.1737C6.39246 11.2753 6.90147 11.0677 7.18541 10.6476L11.0464 4.93574C11.2403 4.64896 11.6299 4.57363 11.9167 4.76748L12.4359 5.11848L8.92595 10.3111L9.96447 11.0131L13.8255 5.30124C14.1765 4.78198 14.4713 4.98124 14.6958 5.13298C14.9193 5.28408 15.2126 5.48233 14.8684 5.99677L11.003 11.7151L12.0415 12.4171Z" fill="white"/>
<path fill-rule="evenodd" clip-rule="evenodd" d="M20.3867 7.87501C20.6315 7.63021 21.0283 7.63021 21.2731 7.87501C22.9024 9.50438 22.9024 12.1462 21.2731 13.7756C21.0283 14.0203 20.6315 14.0203 20.3867 13.7756C20.1419 13.5308 20.1419 13.1339 20.3867 12.8891C21.5266 11.7493 21.5266 9.90128 20.3867 8.76143C20.1419 8.51663 20.1419 8.11981 20.3867 7.87501Z" fill="white"/>
</svg>
