<svg width="68" height="68" viewBox="0 0 68 68" fill="none" xmlns="http://www.w3.org/2000/svg">
<path d="M7.3282 60.9452C7.75029 62.6222 9.04314 64.115 10.6167 64.7779C11.9202 65.327 13.3732 65.3693 14.7873 65.3991C26.8144 65.6517 27.41 64.887 33.7981 64.463C37.3256 64.2288 41.0181 64.2967 44.2929 63.1174C44.9763 63.0683 46.6693 62.8112 46.8467 62.7624C48.2137 63.3398 49.7408 63.3784 51.2418 63.3784C53.8107 63.3784 56.9883 63.1374 59.8376 61.6974C61.6087 60.8118 60.9039 59.8212 60.865 58.7869C60.6492 57.2365 60.7154 57.4716 60.6319 57.2729C60.2558 55.9506 57.9195 55.6871 56.5519 55.6137C58.5112 54.6782 57.965 54.1859 57.6376 51.2725C57.6277 51.186 57.6021 51.1046 57.5648 51.0302C57.3191 50.2871 56.404 49.7886 54.8258 49.5498C53.1544 49.2954 51.1561 49.3776 49.4654 49.5899C47.6978 42.7384 46.0475 35.7138 42.9396 29.9229C39.2297 23.0063 36.447 21.3503 35.2056 19.6557C35.2388 19.6282 35.275 19.596 35.3111 19.5634C35.6605 19.8239 35.8158 19.9408 36.658 20.3585C36.8029 20.455 38.9893 21.3336 39.5177 22.9968C39.6377 23.374 40.0407 23.5923 40.4327 23.4701C40.8164 23.3478 41.0285 22.9389 40.9066 22.5547C40.0852 19.9731 37.1815 19.1645 36.1327 18.363C37.81 18.4701 39.478 18.103 40.945 18.3882C41.9492 18.5836 42.7536 19.1082 43.098 19.7922C43.3807 20.3547 43.3959 21.0539 43.412 21.7948C43.4497 23.5798 43.562 24.382 45.2111 26.9176C45.7803 27.7922 46.3173 28.6176 46.5881 29.5245C46.6825 29.8404 46.9723 30.0444 47.2858 30.0444C47.7772 30.0444 48.1232 29.5718 47.9845 29.1071C47.3183 26.8773 45.3042 25.0738 44.9583 23.0641C44.7522 21.8723 45.062 20.4553 44.3995 19.1376C43.846 18.0372 42.6882 17.2422 41.2234 16.9576C39.0214 16.5315 36.6162 17.325 34.7594 16.6183C35.961 14.2204 39.2472 14.0553 41.7457 9.725C41.9068 9.4447 41.8321 9.19597 41.7632 8.84369C41.466 7.40446 39.3222 6.76949 39.1791 5.88482C39.0907 5.33915 39.5283 4.51615 39.07 3.64787C38.097 1.81182 33.8836 2.19843 32.9336 5.438C31.8135 4.56521 30.4104 4.27787 29.0009 4.16869C25.5512 3.90551 24.1273 4.90411 21.8878 7.32963C21.0582 8.22827 21.0858 8.34518 19.797 8.39782C18.4961 8.45243 17.7478 8.63436 17.0036 9.70507C16.9349 9.80468 16.83 9.95552 16.8509 9.97165C16.7321 9.96386 15.1911 9.42087 14.003 9.86445C12.6849 9.89971 12.1264 11.4973 13.333 12.8011C13.9155 13.4306 15.6437 14.4962 16.7166 14.835C17.5025 15.0832 18.2994 15.3032 19.0613 15.621C20.667 16.2901 21.5798 17.4429 21.5815 17.5402C21.584 17.6576 20.343 18.6111 20.5488 20.0717C20.6236 20.6032 21.1707 21.448 20.677 21.8389C14.4755 26.7448 9.79108 33.0347 8.35506 40.8776C7.48224 45.6445 8.55384 51.2573 8.21205 53.7859C7.91691 55.9693 6.23919 58.5092 7.3282 60.9452ZM34.238 18.5646C33.9606 18.7891 33.7707 18.9568 33.388 19.1737C32.4585 19.6966 30.1247 20.021 29.0673 20.147C27.3203 20.3576 25.4297 20.4183 23.2971 20.3358C22.8564 20.312 22.7796 20.2362 22.7392 20.1612C22.5936 19.8908 22.7445 19.333 23.1424 18.6671C23.2264 18.5257 23.2795 18.3948 23.3288 18.2658C23.3639 18.1738 23.382 18.1273 23.4095 18.0903C23.4095 18.0893 23.41 18.0893 23.41 18.0893C23.4251 18.0685 23.464 18.0191 23.502 18.0125C23.5053 18.0125 23.5086 18.0115 23.5124 18.0115C23.7286 18.0115 24.8858 19.3387 27.7856 19.0086C30.1118 18.7488 33.0952 17.3575 34.238 18.5646ZM36.6144 60.8256C36.5398 60.5891 36.514 59.785 36.5119 59.5619C37.6612 60.2288 38.9334 60.3873 40.0812 60.4376C41.9833 60.5282 43.7227 60.4381 45.3847 60.1866C45.3871 60.59 45.4073 61.1125 45.4912 61.5053C43.3657 61.8151 39.8504 61.8954 38.007 61.4014C37.5941 61.294 37.2292 61.1586 36.6144 60.8256ZM56.3996 53.0076C56.4132 53.1053 56.4054 53.0467 56.5139 53.8377C56.522 53.8908 56.5296 53.9373 56.5514 53.9212C56.4641 54.0312 56.2801 54.1328 56.1307 54.2086C53.9435 55.3081 51.3252 55.7701 47.6274 55.7303C46.478 55.66 45.3271 55.7612 43.855 54.9932C43.8076 54.738 43.8003 54.3059 43.7938 54.2086C46.0356 55.3745 52.7214 55.0851 56.3996 53.0076ZM42.9253 56.1245C44.0187 56.9241 45.8197 57.1371 47.1569 57.1771C46.4589 57.5118 45.6743 57.9775 45.4354 58.7038C43.789 58.9734 42.0562 59.0718 40.1476 58.9823C38.9786 58.9302 37.7764 58.7651 36.7992 57.994C38.4476 56.8098 42.6687 56.2175 42.9253 56.1245ZM59.6042 60.1103C59.6042 60.1112 59.6032 60.1122 59.6023 60.1122C59.5188 60.2194 59.3452 60.3142 59.1839 60.3958C56.3958 61.8046 53.1713 61.9459 50.6759 61.9175C48.5744 61.9175 47.7908 61.6022 46.9059 61.1775C46.8732 60.9907 46.8513 60.5975 46.8423 60.393C49.2606 61.6451 55.8676 61.214 59.4496 59.1958L59.5662 60.0192C59.5748 60.0742 59.5843 60.1207 59.6099 60.1036L60.1753 60.5628L59.6042 60.1103ZM59.1217 57.6087C58.9065 57.8919 58.4574 58.0658 58.1679 58.2044C56.1021 59.1471 53.3515 59.7571 49.795 59.598C48.7271 59.5421 47.8466 59.381 47.1236 58.8551C49.5942 57.1196 57.3793 56.4661 59.1217 57.6087ZM56.0912 51.3854C55.9187 51.6364 55.6367 51.7767 55.118 52.0106C52.999 52.9697 50.1552 53.5678 46.7351 53.4061C45.8055 53.3626 44.8532 53.2316 44.075 52.6675C46.5639 50.9022 54.4453 50.2977 56.0912 51.3854ZM41.656 30.6117C44.6892 36.2656 46.2657 43.0272 48.0181 49.8154C45.3013 50.3206 42.1203 51.3749 42.3187 53.0769C42.3267 53.1463 42.346 53.207 42.3683 53.2644C42.3018 53.7086 42.3326 54.3191 42.3675 54.7657C39.4296 55.2425 34.792 56.3306 35.0401 58.3562C35.0401 58.476 35.0713 58.5741 35.1122 58.6636C35.0158 59.3039 35.0184 60.9314 35.3218 61.5067C35.5006 61.9013 35.8521 62.074 36.0912 62.1907C36.3928 62.3619 36.7201 62.4994 37.0573 62.6206C35.3104 62.7355 33.9546 62.7826 25.7925 63.1403C23.2108 63.2489 20.7415 63.061 18.1224 62.8815C17.2498 60.5468 18.1154 59.0027 18.336 57.6523C18.6173 55.9504 18.1368 54.2874 17.7128 52.8198C17.6004 52.4318 17.1953 52.2117 16.8106 52.3218C16.424 52.4337 16.2011 52.8378 16.3125 53.2239C16.6939 54.5435 17.126 56.0377 16.8983 57.4151C16.6992 58.6303 15.8346 60.233 16.5903 62.8582C15.0632 62.9001 13.7584 63.0498 12.3614 62.6385C8.44104 61.4866 8.32897 60.1185 9.62117 56.4247C10.5166 53.8678 10.6248 52.8315 10.3535 48.8525C10.2848 47.8403 10.2193 46.884 10.2326 45.9411C10.3355 39.4352 13.3413 32.786 18.6951 27.2183C20.4059 25.4418 22.3832 23.7333 23.9355 21.8055C24.9275 21.8305 25.8213 21.8671 27.8152 21.7191C28.4311 22.8314 28.8145 24.0857 28.9202 25.3542C28.952 25.7346 29.2708 26.022 29.6455 26.022C30.0723 26.022 30.4079 25.6583 30.3726 25.2328C30.2669 23.969 29.9131 22.7215 29.3657 21.575C30.6579 21.4153 32.8606 21.1042 34.0104 20.4876C35.5258 22.5782 37.9853 23.7766 41.656 30.6117ZM16.2983 11.3368C16.4814 11.387 16.7295 11.4554 17.0293 11.4165C17.7679 11.3137 18.077 10.6706 18.3417 10.3416C18.8642 9.68926 19.7767 9.95889 20.838 9.76193C21.1179 9.92134 21.4841 9.8496 21.9936 10.519C22.7047 11.4556 22.5849 12.312 23.373 12.312C23.8931 12.312 24.2496 11.7776 24.0413 11.2941C23.6273 10.3353 23.2515 9.52185 22.4045 8.9095C24.709 6.49569 25.4895 5.35596 28.8889 5.62204C30.4491 5.74243 32.1243 6.13117 32.8157 7.52926C33.3492 8.56858 33.4544 9.8501 33.0953 10.9611C32.972 11.3444 33.1821 11.7542 33.5649 11.8785C33.9541 12.0024 34.3601 11.7868 34.4822 11.4089C34.9135 10.0732 34.8479 8.60896 34.3171 7.3154C34.3145 7.21664 33.9066 6.02464 34.8081 4.93995C35.7851 3.7689 37.5497 3.89089 37.7817 4.32901C37.9321 4.6146 37.6212 5.38004 37.7409 6.11819C38.0107 7.78856 40.1806 8.37662 40.3521 9.21841C37.8492 13.3124 34.1968 13.2784 33.1837 16.6586C30.2867 16.3963 27.0365 18.7504 24.491 16.8855C24.2113 16.6799 23.8928 16.5708 23.5698 16.5586C21.1244 13.2482 18.1291 13.3873 15.2937 11.998C15.0674 11.8879 14.3787 11.554 14.318 11.3586C14.4641 11.1224 15.1998 11.0332 16.2983 11.3368Z" fill="black"/>
<path d="M30.4404 34.2069C30.4516 33.4924 30.4463 32.7717 30.4608 32.0592C30.4689 31.6569 30.1492 31.324 29.747 31.3154C29.3656 31.3306 29.0117 31.6266 29.0037 32.0288C28.9891 32.7453 28.9943 33.47 28.9832 34.1884C26.557 34.4453 24.7235 36.0073 24.2016 37.4286C23.9364 38.1524 23.962 38.9237 24.2713 39.546C25.0616 41.1319 27.1718 41.4543 28.911 41.7861C28.9133 43.7212 28.9531 45.6475 28.98 47.5778C27.8105 47.4059 26.1661 46.8165 25.737 45.7142C25.5913 45.3395 25.1678 45.1583 24.794 45.2996C23.5028 45.8024 25.1213 48.6012 28.9976 49.0524C29.012 49.8942 29.0087 50.7426 29.0279 51.5817C29.0369 51.9782 29.3613 52.2932 29.756 52.2932H29.773C30.1753 52.2837 30.494 51.9507 30.485 51.5475C30.4662 50.7215 30.4694 49.8864 30.4551 49.0577C34.0238 48.738 36.0312 45.9351 35.5414 43.908C35.2743 42.7999 34.1435 41.598 33.0213 41.228C32.1478 40.9398 31.2563 40.7508 30.3798 40.5834C30.3821 38.9417 30.4063 37.3064 30.4265 35.669C30.4289 35.6694 30.4314 35.6694 30.4338 35.6698C31.9047 35.9326 33.2409 36.9381 33.9215 38.2938C34.1027 38.6552 34.5415 38.8004 34.8996 38.6182C35.2591 38.438 35.4043 38.0006 35.224 37.6411C34.3541 35.9068 32.5858 34.4935 30.4404 34.2069ZM25.5695 37.9304C25.8895 37.0582 27.1973 35.8993 28.9693 35.6524C28.9503 37.2023 28.9283 38.7503 28.9251 40.3043C27.2186 39.9692 24.9685 39.5726 25.5695 37.9304ZM34.125 44.2495C34.39 45.3456 33.0453 47.3203 30.4377 47.6036C30.4118 45.76 30.3748 43.9203 30.3714 42.072C31.1216 42.2193 31.8549 42.3772 32.5649 42.6111C33.192 42.8179 33.9789 43.6452 34.125 44.2495Z" fill="black"/>
</svg>
