<svg width="84" height="84" viewBox="0 0 84 84" fill="none" xmlns="http://www.w3.org/2000/svg">
<path d="M80.695 31.5086C80.7078 31.7397 80.6909 31.9749 80.6328 32.2085L75.4515 52.9338C75.1902 53.9779 74.2544 54.7121 73.1786 54.7177L42.0908 54.8747C42.0867 54.8747 42.0829 54.8747 42.0788 54.8747H10.9907C9.90917 54.8747 8.9668 54.138 8.70554 53.0886L3.52423 32.2849C3.46457 32.0449 3.4473 31.8032 3.46237 31.5661C1.45799 30.9346 0 29.0589 0 26.8486C0 24.1213 2.21854 21.9028 4.94579 21.9028C7.67305 21.9028 9.89159 24.1213 9.89159 26.8486C9.89159 28.3844 9.18787 29.7586 8.08598 30.6664L14.573 37.2024C16.2125 38.8544 18.4875 39.8015 20.815 39.8015C23.5671 39.8015 26.191 38.4946 27.8434 36.3049L38.5043 22.1791C37.6088 21.2842 37.0542 20.0475 37.0542 18.6841C37.0542 15.9568 39.2727 13.7383 42 13.7383C44.7273 13.7383 46.9458 15.9568 46.9458 18.6841C46.9458 20.0067 46.4208 21.2072 45.572 22.0956C45.5748 22.0993 45.5782 22.1025 45.5811 22.1066L56.1648 36.2713C57.8165 38.482 60.4499 39.8018 63.2098 39.8018C65.5586 39.8018 67.7674 38.8871 69.4283 37.2259L75.9561 30.6981C74.831 29.7906 74.1084 28.4033 74.1084 26.8486C74.1084 24.1213 76.327 21.9028 79.0542 21.9028C81.7815 21.9028 84 24.1213 84 26.8486C84 28.9999 82.6168 30.8297 80.695 31.5086ZM74.9459 62.2542C74.9459 60.9535 73.8914 59.899 72.5908 59.899H11.6711C10.3705 59.899 9.31599 60.9535 9.31599 62.2542V67.9065C9.31599 69.2072 10.3705 70.2617 11.6711 70.2617H72.5908C73.8914 70.2617 74.9459 69.2072 74.9459 67.9065V62.2542Z" fill="#FF7332"/>
</svg>
