<svg width="84" height="84" viewBox="0 0 84 84" fill="none" xmlns="http://www.w3.org/2000/svg">
<g filter="url(#filter0_b_320_1863)">
<rect width="83.9961" height="83.9999" rx="41.9981" fill="black" fill-opacity="0.2"/>
<path d="M51.9453 37.8801C51.8985 36.8173 51.7266 36.0868 51.4804 35.4537C51.2264 34.7818 50.8357 34.1802 50.3239 33.68C49.8238 33.1721 49.2182 32.7774 48.554 32.5274C47.9173 32.2813 47.1905 32.1094 46.1278 32.0626C45.0572 32.0117 44.7173 32 42.002 32C39.2866 32 38.9467 32.0117 37.8801 32.0586C36.8174 32.1055 36.0868 32.2775 35.4539 32.5235C34.7818 32.7774 34.1802 33.1681 33.68 33.68C33.1721 34.1801 32.7776 34.7857 32.5274 35.4499C32.2813 36.0868 32.1094 36.8134 32.0626 37.8761C32.0118 38.9467 32 39.2866 32 42.002C32 44.7173 32.0118 45.0572 32.0586 46.1239C32.1055 47.1866 32.2775 47.9171 32.5237 48.5502C32.7776 49.2222 33.1721 49.8238 33.68 50.3239C34.1802 50.8318 34.7857 51.2265 35.4499 51.4765C36.0868 51.7226 36.8134 51.8945 37.8763 51.9413C38.9427 51.9884 39.2828 51.9999 41.9982 51.9999C44.7135 51.9999 45.0534 51.9884 46.1201 51.9413C47.1827 51.8945 47.9133 51.7226 48.5462 51.4765C49.2109 51.2195 49.8146 50.8264 50.3186 50.3225C50.8225 49.8185 51.2156 49.2149 51.4727 48.5502C51.7187 47.9133 51.8907 47.1865 51.9375 46.1239C51.9844 45.0572 51.9961 44.7173 51.9961 42.002C51.9961 39.2866 51.9921 38.9467 51.9453 37.8801ZM50.1443 46.0457C50.1012 47.0225 49.9372 47.5499 49.8004 47.9015C49.4643 48.7728 48.7728 49.4643 47.9015 49.8004C47.5499 49.9372 47.0187 50.1012 46.0457 50.1441C44.9908 50.1911 44.6745 50.2027 42.0059 50.2027C39.3374 50.2027 39.0171 50.1911 37.966 50.1441C36.9892 50.1012 36.4618 49.9372 36.1101 49.8004C35.6766 49.6402 35.2819 49.3862 34.9616 49.0541C34.6295 48.7298 34.3755 48.3391 34.2152 47.9055C34.0785 47.5539 33.9144 47.0225 33.8716 46.0497C33.8245 44.9948 33.813 44.6783 33.813 42.0097C33.813 39.3412 33.8245 39.0209 33.8716 37.97C33.9144 36.9932 34.0785 36.4658 34.2152 36.1141C34.3755 35.6804 34.6295 35.2858 34.9655 34.9653C35.2897 34.6332 35.6804 34.3793 36.1141 34.2192C36.4658 34.0825 36.9972 33.9184 37.97 33.8754C39.0248 33.8285 39.3414 33.8168 42.0097 33.8168C44.6822 33.8168 44.9986 33.8285 46.0497 33.8754C47.0264 33.9184 47.5539 34.0824 47.9055 34.2192C48.3391 34.3793 48.7338 34.6332 49.0541 34.9653C49.3862 35.2897 49.6402 35.6804 49.8004 36.1141C49.9372 36.4658 50.1012 36.997 50.1442 37.97C50.1911 39.0248 50.2029 39.3412 50.2029 42.0097C50.2029 44.6783 50.1912 44.9908 50.1443 46.0457Z" fill="white"/>
<path d="M41.9971 36.8635C39.1607 36.8635 36.8594 39.1646 36.8594 42.0012C36.8594 44.8378 39.1607 47.1389 41.9971 47.1389C44.8336 47.1389 47.1348 44.8378 47.1348 42.0012C47.1348 39.1646 44.8336 36.8635 41.9971 36.8635ZM41.9971 45.3339C40.157 45.3339 38.6643 43.8415 38.6643 42.0012C38.6643 40.1609 40.157 38.6685 41.9971 38.6685C43.8373 38.6685 45.3298 40.1609 45.3298 42.0012C45.3298 43.8415 43.8373 45.3339 41.9971 45.3339ZM48.5375 36.6603C48.5375 37.3227 48.0004 37.8598 47.3379 37.8598C46.6756 37.8598 46.1385 37.3227 46.1385 36.6603C46.1385 35.9978 46.6755 35.4609 47.3379 35.4609C48.0004 35.4609 48.5375 35.9978 48.5375 36.6603Z" fill="white"/>
</g>
<defs>
<filter id="filter0_b_320_1863" x="-8" y="-8" width="99.9961" height="100" filterUnits="userSpaceOnUse" color-interpolation-filters="sRGB">
<feFlood flood-opacity="0" result="BackgroundImageFix"/>
<feGaussianBlur in="BackgroundImageFix" stdDeviation="4"/>
<feComposite in2="SourceAlpha" operator="in" result="effect1_backgroundBlur_320_1863"/>
<feBlend mode="normal" in="SourceGraphic" in2="effect1_backgroundBlur_320_1863" result="shape"/>
</filter>
</defs>
</svg>
