<svg width="84" height="84" viewBox="0 0 84 84" fill="none" xmlns="http://www.w3.org/2000/svg">
<g filter="url(#filter0_b_328_1863)">
<rect width="84" height="84" rx="42" fill="black" fill-opacity="0.2"/>
<path d="M39.8334 45.2503L45.4559 42.0003L39.8334 38.7503V45.2503ZM52.3567 36.7678C52.4976 37.277 52.5951 37.9595 52.6601 38.8262C52.7359 39.6928 52.7684 40.4403 52.7684 41.0903L52.8334 42.0003C52.8334 44.3728 52.6601 46.117 52.3567 47.2328C52.0859 48.2078 51.4576 48.8362 50.4826 49.107C49.9734 49.2478 49.0417 49.3453 47.6117 49.4103C46.2034 49.4862 44.9142 49.5187 43.7226 49.5187L42.0001 49.5837C37.4609 49.5837 34.6334 49.4103 33.5176 49.107C32.5426 48.8362 31.9142 48.2078 31.6434 47.2328C31.5026 46.7237 31.4051 46.0412 31.3401 45.1745C31.2642 44.3078 31.2317 43.5603 31.2317 42.9103L31.1667 42.0003C31.1667 39.6278 31.3401 37.8837 31.6434 36.7678C31.9142 35.7928 32.5426 35.1645 33.5176 34.8937C34.0267 34.7528 34.9584 34.6553 36.3884 34.5903C37.7967 34.5145 39.0859 34.482 40.2776 34.482L42.0001 34.417C46.5392 34.417 49.3667 34.5903 50.4826 34.8937C51.4576 35.1645 52.0859 35.7928 52.3567 36.7678Z" fill="white"/>
</g>
<defs>
<filter id="filter0_b_328_1863" x="-8" y="-8" width="100" height="100" filterUnits="userSpaceOnUse" color-interpolation-filters="sRGB">
<feFlood flood-opacity="0" result="BackgroundImageFix"/>
<feGaussianBlur in="BackgroundImageFix" stdDeviation="4"/>
<feComposite in2="SourceAlpha" operator="in" result="effect1_backgroundBlur_328_1863"/>
<feBlend mode="normal" in="SourceGraphic" in2="effect1_backgroundBlur_328_1863" result="shape"/>
</filter>
</defs>
</svg>
