<svg width="63" height="63" viewBox="0 0 63 63" fill="none" xmlns="http://www.w3.org/2000/svg">
<g clip-path="url(#clip0_130_500)">
<mask id="mask0_130_500" style="mask-type:luminance" maskUnits="userSpaceOnUse" x="0" y="0" width="63" height="63">
<path d="M63 0H0V63H63V0Z" fill="white"/>
</mask>
<g mask="url(#mask0_130_500)">
<path fill-rule="evenodd" clip-rule="evenodd" d="M59.5164 31.5C60.7222 31.5 61.8903 31.3381 63 31.0349C62.1177 30.8488 61.2029 30.7509 60.2655 30.7509H44.6843C42.1108 30.7509 39.7092 30.0135 37.68 28.7385C38.1235 26.1417 39.3476 23.6523 41.3523 21.6477L51.3107 11.6895C52.1634 10.8368 52.8746 9.89632 53.4451 8.89724C52.6894 9.38949 51.9734 9.9671 51.3107 10.6301L40.2929 21.6477C38.4732 23.4675 36.2537 24.6441 33.9173 25.1775C32.3946 23.0275 31.5 20.4016 31.5 17.5668V3.48368C31.5 2.27779 31.3381 1.10971 31.0349 0C30.8488 0.882224 30.7509 1.79697 30.7509 2.73457V18.3159C30.7509 20.8894 30.0135 23.2907 28.7386 25.3201C26.1418 24.8764 23.6523 23.6522 21.6477 21.6477L11.6895 11.6895C10.8368 10.8368 9.89632 10.1253 8.89724 9.55502C9.38949 10.3104 9.9671 11.0265 10.6301 11.6895L21.6477 22.7071C23.4675 24.5269 24.6441 26.7463 25.1775 29.0828C23.0275 30.6053 20.4016 31.5 17.5668 31.5H3.48368C2.27778 31.5 1.10971 31.6619 0 31.9653C0.88223 32.1511 1.79698 32.2491 2.73458 32.2491H18.3159C20.8894 32.2491 23.2907 32.9865 25.3201 34.2616C24.8764 36.8582 23.6523 39.3476 21.6477 41.3523L11.6895 51.3107C10.8368 52.1634 10.1253 53.1037 9.55505 54.1028C10.3105 53.6105 11.0265 53.0328 11.6895 52.37L22.7071 41.3523C24.5268 39.5325 26.7463 38.356 29.0828 37.8224C30.6053 39.9726 31.5 42.5984 31.5 45.4334V59.5164C31.5 60.7222 31.6619 61.8903 31.9653 63C32.1511 62.1177 32.2491 61.2029 32.2491 60.2655V44.684C32.2491 42.1105 32.9865 39.7092 34.2616 37.68C36.8582 38.1235 39.3476 39.3476 41.3523 41.3523L51.3107 51.3107C52.1634 52.1634 53.1037 52.8746 54.1028 53.4451C53.6105 52.6894 53.0328 51.9734 52.37 51.3107L41.3523 40.2929C39.5325 38.4732 38.356 36.2537 37.8227 33.9173C39.9726 32.3946 42.5984 31.5 45.4334 31.5H59.5164Z" fill="url(#paint0_linear_130_500)"/>
</g>
</g>
<defs>
<linearGradient id="paint0_linear_130_500" x1="31.5" y1="0" x2="31.5" y2="63" gradientUnits="userSpaceOnUse">
<stop stop-color="#292929"/>
<stop offset="1" stop-color="#040404"/>
</linearGradient>
<clipPath id="clip0_130_500">
<rect width="63" height="63" fill="white"/>
</clipPath>
</defs>
</svg>
