<svg width="64" height="64" viewBox="0 0 64 64" fill="none" xmlns="http://www.w3.org/2000/svg">
<g clip-path="url(#clip0_42_37)">
<path d="M63.864 25.6086C63.864 21.2432 60.3493 17.6859 56 17.6112V1.33391C56 0.635239 55.4613 0.0565719 54.7653 0.00323852C54.0773 -0.0447615 53.4533 0.445905 53.3467 1.13657C52.0613 9.73924 40.6907 10.6672 35.8613 10.6672H14.664C6.57867 10.6672 0 17.2459 0 25.3339C0 29.7366 1.968 33.6912 5.07733 36.3819L13.736 59.6166C14.3467 61.2886 15.5707 62.6246 17.184 63.3766C18.08 63.7926 19.0347 64.0032 19.9947 64.0032C20.7653 64.0032 21.5387 63.8672 22.2827 63.5952C25.736 62.3366 27.52 58.5019 26.264 55.0512L20.808 40.0006H36.0027C41.888 40.0006 51.968 41.2406 53.3547 49.5526C53.464 50.2006 54.0213 50.6672 54.6693 50.6672C54.7067 50.6672 54.744 50.6672 54.7813 50.6646C55.472 50.6086 56.0053 50.0299 56.0053 49.3339V33.6032C60.3547 33.5286 63.8693 29.9712 63.8693 25.6059L63.864 25.6086ZM2.66667 25.3339C2.66667 18.7179 8.05067 13.3339 14.6667 13.3339H21.3333V37.3339H14.8027C8.10933 37.3339 2.66667 31.9499 2.66667 25.3339ZM23.7573 55.9632C24.1227 56.9659 24.0773 58.0539 23.6267 59.0192C23.176 59.9872 22.3733 60.7232 21.3707 61.0886C19.2933 61.8459 16.9973 60.7712 16.24 58.6912L8.80533 38.7392C10.64 39.5472 12.6693 40.0006 14.8053 40.0006H17.9707L23.7573 55.9632ZM53.3333 43.3312C50.056 39.4619 44.0587 37.3339 36 37.3339H24V13.3339H35.864C44.016 13.3339 50.0533 11.2326 53.3333 7.4059V43.3312ZM56 30.9366V20.2779C58.8773 20.3499 61.1973 22.7126 61.1973 25.6086C61.1973 28.5046 58.88 30.8646 56 30.9392V30.9366Z" fill="#FF7332"/>
</g>
<defs>
<clipPath id="clip0_42_37">
<rect width="64" height="64" fill="white"/>
</clipPath>
</defs>
</svg>
