<svg width="64" height="64" viewBox="0 0 64 64" fill="none" xmlns="http://www.w3.org/2000/svg">
<path d="M60.9 7H3.1C2.80826 7 2.52847 7.11589 2.32218 7.32218C2.11589 7.52847 2 7.80826 2 8.1V35.9C2 36.1917 2.11589 36.4715 2.32218 36.6778C2.52847 36.8841 2.80826 37 3.1 37H32.05C32.05 37.33 32.05 37.66 32.05 38C32.057 38.5937 32.1139 39.1858 32.22 39.77C30.8927 40.2988 29.6941 41.1058 28.705 42.1367C27.7158 43.1677 26.9591 44.3986 26.4857 45.7467C26.0123 47.0947 25.8333 48.5285 25.9607 49.9515C26.0881 51.3746 26.5189 52.7538 27.2242 53.9963C27.9294 55.2389 28.8928 56.3158 30.0493 57.1547C31.2058 57.9936 32.5287 58.5749 33.9288 58.8596C35.3289 59.1442 36.7737 59.1255 38.166 58.8047C39.5582 58.4839 40.8656 57.8685 42 57C43.7275 58.3048 45.8351 59.0073 48 59C50.31 58.9959 52.5474 58.1921 54.332 56.7252C56.1165 55.2583 57.3382 53.2189 57.7894 50.9533C58.2406 48.6878 57.8936 46.3359 56.8072 44.2972C55.7208 42.2586 53.9622 40.6589 51.83 39.77C51.9361 39.1858 51.993 38.5937 52 38C52 37.66 52 37.33 52 37H60.9C61.1917 37 61.4715 36.8841 61.6778 36.6778C61.8841 36.4715 62 36.1917 62 35.9V8.1C62 7.80826 61.8841 7.52847 61.6778 7.32218C61.4715 7.11589 61.1917 7 60.9 7ZM28 49C28.0014 47.5452 28.3994 46.1184 29.1513 44.873C29.9031 43.6275 30.9804 42.6107 32.267 41.9319C33.5537 41.2531 35.0011 40.938 36.4536 41.0204C37.906 41.1029 39.3084 41.5799 40.51 42.4C40.067 42.8925 39.675 43.4285 39.34 44C38.436 43.4003 37.3863 43.057 36.3027 43.0065C35.219 42.956 34.142 43.2003 33.1861 43.7132C32.2302 44.2262 31.4313 44.9888 30.8744 45.9197C30.3175 46.8507 30.0234 47.9152 30.0234 49C30.0234 50.0848 30.3175 51.1493 30.8744 52.0803C31.4313 53.0112 32.2302 53.7738 33.1861 54.2868C34.142 54.7997 35.219 55.044 36.3027 54.9935C37.3863 54.943 38.436 54.5997 39.34 54C39.6738 54.5784 40.0659 55.1212 40.51 55.62C39.307 56.4411 37.9027 56.9182 36.4486 56.9999C34.9944 57.0815 33.5455 56.7647 32.2582 56.0834C30.9709 55.4022 29.8939 54.3825 29.1435 53.1342C28.3931 51.8859 27.9977 50.4565 28 49ZM38 38C38 36.9391 38.4214 35.9217 39.1716 35.1716C39.9217 34.4214 40.9391 34 42 34C43.0609 34 44.0783 34.4214 44.8284 35.1716C45.5786 35.9217 46 36.9391 46 38C45.9927 38.4289 45.9185 38.854 45.78 39.26C44.4119 39.5685 43.124 40.1614 42 41C40.8768 40.1578 39.5889 39.5615 38.22 39.25C38.078 38.8484 38.0037 38.426 38 38ZM38.5 52.11C37.7946 52.6868 36.9112 53.0013 36 53C34.9391 53 33.9217 52.5786 33.1716 51.8284C32.4214 51.0783 32 50.0609 32 49C32 47.9391 32.4214 46.9217 33.1716 46.1716C33.9217 45.4214 34.9391 45 36 45C36.9112 44.9987 37.7946 45.3132 38.5 45.89C37.8332 47.9097 37.8332 50.0903 38.5 52.11ZM56 49C56 50.5823 55.5308 52.129 54.6518 53.4446C53.7727 54.7602 52.5233 55.7855 51.0615 56.391C49.5997 56.9965 47.9911 57.155 46.4393 56.8463C44.8874 56.5376 43.462 55.7757 42.3431 54.6569C41.2243 53.538 40.4624 52.1126 40.1537 50.5607C39.845 49.0089 40.0035 47.4003 40.609 45.9385C41.2145 44.4767 42.2398 43.2273 43.5554 42.3482C44.871 41.4692 46.4177 41 48 41C50.1217 41 52.1566 41.8429 53.6569 43.3431C55.1571 44.8434 56 46.8783 56 49ZM48 39H47.91C47.9652 38.6694 47.9953 38.3351 48 38C48 36.4087 47.3679 34.8826 46.2426 33.7574C45.1174 32.6321 43.5913 32 42 32C40.4087 32 38.8826 32.6321 37.7574 33.7574C36.6321 34.8826 36 36.4087 36 38C36.0047 38.3351 36.0348 38.6694 36.09 39H36C35.362 39.0018 34.7257 39.0654 34.1 39.19C33.9176 38.0472 33.9853 36.8785 34.2984 35.7645C34.6115 34.6504 35.1626 33.6175 35.9136 32.7371C36.6647 31.8567 37.5978 31.1497 38.6485 30.6649C39.6993 30.1801 40.8428 29.929 42 29.929C43.1572 29.929 44.3007 30.1801 45.3515 30.6649C46.4022 31.1497 47.3353 31.8567 48.0864 32.7371C48.8374 33.6175 49.3885 34.6504 49.7016 35.7645C50.0147 36.8785 50.0824 38.0472 49.9 39.19C49.2743 39.0654 48.638 39.0018 48 39ZM42 28C40.6719 28.0015 39.3574 28.2676 38.1332 28.7827C36.909 29.2977 35.7997 30.0515 34.87 31H11.87C11.6762 30.0431 11.2064 29.1639 10.5187 28.4708C9.83097 27.7778 8.95539 27.3012 8 27.1V16.9C8.96089 16.704 9.84294 16.2298 10.5364 15.5364C11.2298 14.8429 11.704 13.9609 11.9 13H52.1C52.296 13.9609 52.7702 14.8429 53.4636 15.5364C54.1571 16.2298 55.0391 16.704 56 16.9V27.1C55.0391 27.296 54.1571 27.7702 53.4636 28.4636C52.7702 29.1571 52.296 30.0391 52.1 31H49.1C48.1739 30.0551 47.0694 29.3034 45.8507 28.7885C44.6319 28.2735 43.3231 28.0055 42 28ZM60 35H51.54C51.3157 34.3034 51.0173 33.633 50.65 33H54V32C54 31.2044 54.3161 30.4413 54.8787 29.8787C55.4413 29.3161 56.2044 29 57 29H58V15H57C56.2044 15 55.4413 14.6839 54.8787 14.1213C54.3161 13.5587 54 12.7956 54 12V11H10V12C10 12.7956 9.68393 13.5587 9.12132 14.1213C8.55871 14.6839 7.79565 15 7 15H6V29H7C7.79565 29 8.55871 29.3161 9.12132 29.8787C9.68393 30.4413 10 31.2044 10 32V33H33.35C32.9827 33.633 32.6843 34.3034 32.46 35H4V9H60V35Z" fill="#FF7332"/>
<path d="M32 18C33.08 18 34 18.69 34 19.5H36C35.9557 18.6804 35.635 17.9 35.0902 17.2862C34.5453 16.6723 33.8085 16.2613 33 16.12V15H31V16.12C30.1915 16.2613 29.4547 16.6723 28.9098 17.2862C28.365 17.9 28.0443 18.6804 28 19.5C28.0719 20.4924 28.5321 21.4165 29.281 22.0717C30.0298 22.727 31.0068 23.0605 32 23C33.08 23 34 23.69 34 24.5C34 25.31 33.08 26 32 26C30.92 26 30 25.31 30 24.5H28C28.0443 25.3196 28.365 26.1 28.9098 26.7138C29.4547 27.3277 30.1915 27.7387 31 27.88V29H33V27.88C33.8085 27.7387 34.5453 27.3277 35.0902 26.7138C35.635 26.1 35.9557 25.3196 36 24.5C35.9281 23.5076 35.4679 22.5835 34.719 21.9283C33.9702 21.273 32.9932 20.9395 32 21C30.92 21 30 20.31 30 19.5C30 18.69 30.92 18 32 18ZM18 19C17.4067 19 16.8266 19.1759 16.3333 19.5056C15.8399 19.8352 15.4554 20.3038 15.2284 20.8519C15.0013 21.4001 14.9419 22.0033 15.0576 22.5853C15.1734 23.1672 15.4591 23.7018 15.8787 24.1213C16.2982 24.5409 16.8328 24.8266 17.4147 24.9424C17.9967 25.0581 18.5999 24.9987 19.1481 24.7716C19.6962 24.5446 20.1648 24.1601 20.4944 23.6667C20.8241 23.1734 21 22.5933 21 22C21 21.2044 20.6839 20.4413 20.1213 19.8787C19.5587 19.3161 18.7957 19 18 19ZM18 23C17.8022 23 17.6089 22.9414 17.4444 22.8315C17.28 22.7216 17.1518 22.5654 17.0761 22.3827C17.0004 22.2 16.9806 21.9989 17.0192 21.8049C17.0578 21.6109 17.153 21.4327 17.2929 21.2929C17.4327 21.153 17.6109 21.0578 17.8049 21.0192C17.9989 20.9806 18.2 21.0004 18.3827 21.0761C18.5654 21.1518 18.7216 21.28 18.8315 21.4444C18.9414 21.6089 19 21.8022 19 22C19 22.2652 18.8946 22.5196 18.7071 22.7071C18.5196 22.8946 18.2652 23 18 23ZM46 19C45.4067 19 44.8266 19.1759 44.3333 19.5056C43.8399 19.8352 43.4554 20.3038 43.2284 20.8519C43.0013 21.4001 42.9419 22.0033 43.0576 22.5853C43.1734 23.1672 43.4591 23.7018 43.8787 24.1213C44.2982 24.5409 44.8328 24.8266 45.4147 24.9424C45.9967 25.0581 46.5999 24.9987 47.148 24.7716C47.6962 24.5446 48.1648 24.1601 48.4944 23.6667C48.8241 23.1734 49 22.5933 49 22C49 21.2044 48.6839 20.4413 48.1213 19.8787C47.5587 19.3161 46.7957 19 46 19ZM46 23C45.8022 23 45.6089 22.9414 45.4444 22.8315C45.28 22.7216 45.1518 22.5654 45.0761 22.3827C45.0004 22.2 44.9806 21.9989 45.0192 21.8049C45.0578 21.6109 45.153 21.4327 45.2929 21.2929C45.4327 21.153 45.6109 21.0578 45.8049 21.0192C45.9989 20.9806 46.2 21.0004 46.3827 21.0761C46.5654 21.1518 46.7216 21.28 46.8315 21.4444C46.9414 21.6089 47 21.8022 47 22C47 22.2652 46.8946 22.5196 46.7071 22.7071C46.5196 22.8946 46.2652 23 46 23ZM43.41 38C43.5738 37.8087 43.6594 37.5626 43.6497 37.3109C43.64 37.0593 43.5357 36.8205 43.3576 36.6424C43.1795 36.4643 42.9407 36.36 42.6891 36.3503C42.4374 36.3406 42.1913 36.4262 42 36.59L40.59 38C40.4038 38.1874 40.2992 38.4408 40.2992 38.705C40.2992 38.9692 40.4038 39.2226 40.59 39.41C40.7746 39.5984 41.0262 39.7062 41.29 39.71C41.4223 39.7094 41.5532 39.6826 41.6751 39.6312C41.7969 39.5797 41.9074 39.5045 42 39.41L43.41 38ZM37 48H35C34.7348 48 34.4804 48.1054 34.2929 48.2929C34.1054 48.4804 34 48.7348 34 49C34 49.2652 34.1054 49.5196 34.2929 49.7071C34.4804 49.8946 34.7348 50 35 50H37C37.2652 50 37.5196 49.8946 37.7071 49.7071C37.8946 49.5196 38 49.2652 38 49C38 48.7348 37.8946 48.4804 37.7071 48.2929C37.5196 48.1054 37.2652 48 37 48ZM42 49C42 50.1867 42.3519 51.3467 43.0112 52.3334C43.6705 53.3201 44.6075 54.0892 45.7039 54.5433C46.8003 54.9974 48.0067 55.1162 49.1705 54.8847C50.3344 54.6532 51.4035 54.0818 52.2426 53.2426C53.0818 52.4035 53.6532 51.3344 53.8847 50.1705C54.1162 49.0067 53.9974 47.8003 53.5433 46.7039C53.0892 45.6075 52.3201 44.6705 51.3334 44.0112C50.3467 43.3519 49.1867 43 48 43C46.4087 43 44.8826 43.6321 43.7574 44.7574C42.6321 45.8826 42 47.4087 42 49ZM52 49C52 49.7911 51.7654 50.5645 51.3259 51.2223C50.8864 51.8801 50.2616 52.3928 49.5307 52.6955C48.7998 52.9983 47.9956 53.0775 47.2196 52.9231C46.4437 52.7688 45.731 52.3878 45.1716 51.8284C44.6122 51.269 44.2312 50.5563 44.0769 49.7804C43.9225 49.0044 44.0017 48.2002 44.3045 47.4693C44.6072 46.7384 45.1199 46.1136 45.7777 45.6741C46.4355 45.2346 47.2089 45 48 45C49.0609 45 50.0783 45.4214 50.8284 46.1716C51.5786 46.9217 52 47.9391 52 49Z" fill="#FF7332"/>
<path d="M46.5901 47.59C46.4039 47.7774 46.2993 48.0308 46.2993 48.295C46.2993 48.5592 46.4039 48.8126 46.5901 49L48.0001 50.41C48.0927 50.5045 48.2032 50.5796 48.325 50.6311C48.4469 50.6826 48.5778 50.7094 48.7101 50.71C48.9739 50.7062 49.2255 50.5984 49.4101 50.41C49.5964 50.2226 49.7009 49.9692 49.7009 49.705C49.7009 49.4408 49.5964 49.1874 49.4101 49L48.0001 47.59C47.8127 47.4037 47.5593 47.2992 47.2951 47.2992C47.0309 47.2992 46.7775 47.4037 46.5901 47.59Z" fill="#FF7332"/>
</svg>
