<svg width="64" height="64" viewBox="0 0 64 64" fill="none" xmlns="http://www.w3.org/2000/svg">
<path d="M46.4 6.39999C45.9757 6.39999 45.5687 6.56857 45.2687 6.86862C44.9686 7.16868 44.8 7.57565 44.8 7.99999C44.8 8.42434 44.9686 8.83131 45.2687 9.13136C45.5687 9.43142 45.9757 9.59999 46.4 9.59999H52.1376L36.8 24.9376L28.3328 16.4672C28.1842 16.3182 28.0077 16.2 27.8133 16.1193C27.6189 16.0387 27.4105 15.9971 27.2 15.9971C26.9896 15.9971 26.7812 16.0387 26.5868 16.1193C26.3924 16.2 26.2159 16.3182 26.0672 16.4672L10.0672 32.4672C9.76681 32.7676 9.59802 33.1751 9.59802 33.6C9.59802 34.0249 9.76681 34.4324 10.0672 34.7328C10.3677 35.0332 10.7752 35.202 11.2 35.202C11.6249 35.202 12.0324 35.0332 12.3328 34.7328L27.2 19.8624L35.6672 28.3328C35.8159 28.4818 35.9924 28.6 36.1868 28.6807C36.3812 28.7613 36.5896 28.8029 36.8 28.8029C37.0105 28.8029 37.2189 28.7613 37.4133 28.6807C37.6077 28.6 37.7842 28.4818 37.9328 28.3328L54.4 11.8624V17.6C54.4 18.0243 54.5686 18.4313 54.8687 18.7314C55.1687 19.0314 55.5757 19.2 56 19.2C56.4244 19.2 56.8314 19.0314 57.1314 18.7314C57.4315 18.4313 57.6 18.0243 57.6 17.6V7.99999C57.6 7.57565 57.4315 7.16868 57.1314 6.86862C56.8314 6.56857 56.4244 6.39999 56 6.39999H46.4ZM49.6 28.8C49.1757 28.8 48.7687 28.9686 48.4687 29.2686C48.1686 29.5687 48 29.9756 48 30.4V56C48 56.4243 48.1686 56.8313 48.4687 57.1314C48.7687 57.4314 49.1757 57.6 49.6 57.6C50.0244 57.6 50.4314 57.4314 50.7314 57.1314C51.0315 56.8313 51.2 56.4243 51.2 56V30.4C51.2 29.9756 51.0315 29.5687 50.7314 29.2686C50.4314 28.9686 50.0244 28.8 49.6 28.8ZM24 35.2C23.5757 35.2 23.1687 35.3686 22.8687 35.6686C22.5686 35.9687 22.4 36.3756 22.4 36.8V56C22.4 56.4243 22.5686 56.8313 22.8687 57.1314C23.1687 57.4314 23.5757 57.6 24 57.6C24.4244 57.6 24.8314 57.4314 25.1314 57.1314C25.4315 56.8313 25.6 56.4243 25.6 56V36.8C25.6 36.3756 25.4315 35.9687 25.1314 35.6686C24.8314 35.3686 24.4244 35.2 24 35.2ZM35.2 43.2C35.2 42.7756 35.3686 42.3687 35.6687 42.0686C35.9687 41.7686 36.3757 41.6 36.8 41.6C37.2244 41.6 37.6314 41.7686 37.9314 42.0686C38.2315 42.3687 38.4 42.7756 38.4 43.2V56C38.4 56.4243 38.2315 56.8313 37.9314 57.1314C37.6314 57.4314 37.2244 57.6 36.8 57.6C36.3757 57.6 35.9687 57.4314 35.6687 57.1314C35.3686 56.8313 35.2 56.4243 35.2 56V43.2ZM9.60004 46.4C9.60004 45.9756 9.76861 45.5687 10.0687 45.2686C10.3687 44.9686 10.7757 44.8 11.2 44.8C11.6244 44.8 12.0314 44.9686 12.3314 45.2686C12.6315 45.5687 12.8 45.9756 12.8 46.4V56C12.8 56.4243 12.6315 56.8313 12.3314 57.1314C12.0314 57.4314 11.6244 57.6 11.2 57.6C10.7757 57.6 10.3687 57.4314 10.0687 57.1314C9.76861 56.8313 9.60004 56.4243 9.60004 56V46.4Z" fill="#FF7332"/>
</svg>
