<svg width="62" height="62" viewBox="0 0 62 62" fill="none" xmlns="http://www.w3.org/2000/svg">
<g clip-path="url(#clip0_41_18)">
<path fill-rule="evenodd" clip-rule="evenodd" d="M50.81 34.962H44.4099C43.4949 34.962 42.886 34.352 42.886 33.438C42.886 32.524 43.4959 31.914 44.4099 31.914H50.81C52.333 31.914 53.857 31.61 55.381 31.304C56.295 31 56.905 30.695 57.514 30.39C58.124 30.086 58.429 29.171 58.429 28.562C58.429 27.952 58.124 27.342 57.819 26.733C56.295 24.905 53.5519 23.686 49.8949 22.467C49.5899 22.467 49.5899 22.162 49.2849 22.162C48.3709 21.552 47.762 20.638 47.457 19.724C47.457 18.504 48.0669 17.59 48.9809 16.981C51.1139 13.933 52.3329 11.191 52.0289 8.75199C51.7239 7.22899 51.1139 6.00999 49.8949 5.09499C47.762 3.57099 44.7149 3.57099 42.8849 5.09499C41.6669 6.00999 41.0569 7.22899 40.7519 8.75199C40.4479 11.19 41.6669 13.933 43.7999 16.981C44.4099 17.591 44.1049 18.505 43.4949 19.114C42.8849 19.724 41.9709 19.419 41.3619 18.81C38.3139 15.152 37.095 11.495 37.705 8.14299C38.01 6.00999 39.2289 3.87599 41.0569 2.65699C44.1049 0.218991 48.6769 0.218991 51.7239 2.65699C53.5519 4.18099 54.771 6.00999 55.076 8.14299C55.381 11.495 54.1619 15.153 51.4189 18.81C51.1139 19.114 51.1139 19.419 50.8089 19.419C50.8089 19.419 51.1139 19.419 51.1139 19.724C55.0759 20.943 58.124 22.771 59.952 24.904C60.867 25.819 61.476 27.343 61.476 28.867C61.476 29.6948 61.2833 30.5113 60.913 31.2518C60.5428 31.9922 60.0053 32.6363 59.3429 33.133C58.4289 33.743 57.5139 34.353 56.2949 34.657C54.4669 34.657 52.638 34.962 50.81 34.962Z" fill="#FF7332"/>
<path fill-rule="evenodd" clip-rule="evenodd" d="M17.5899 34.962H11.1899C9.05693 34.962 7.22893 34.657 5.70493 34.048C4.48493 33.743 3.57093 33.133 2.65693 32.524C1.43793 31.61 0.523926 29.781 0.523926 28.257C0.523926 26.733 1.13393 25.514 2.04793 24.295C4.18093 22.162 7.22793 20.638 11.1899 19.419C11.1899 19.419 11.4949 19.419 11.4949 19.114C11.4949 19.114 11.1899 18.81 11.1899 18.504C8.14293 14.849 6.61993 10.887 7.22993 7.83901C7.53393 5.70601 8.75293 3.57201 10.5819 2.35301C13.6299 -0.0849943 18.2009 -0.0849943 21.2489 2.35301C23.0769 3.87701 24.2959 5.70601 24.6009 7.83901C24.9059 11.191 23.6869 14.849 20.9439 18.506C20.3339 19.116 19.4199 19.116 18.8109 18.811C18.2009 18.201 17.8959 17.287 18.5059 16.677C20.9439 13.63 21.8579 10.582 21.5529 8.44901C21.5529 6.92501 20.6389 5.70601 19.4199 4.79101C17.2869 3.26801 14.5439 3.26801 12.4099 4.79101C11.1909 5.70601 10.2769 6.92501 10.2769 8.14401C9.97193 10.582 11.1909 13.324 13.3249 16.372C13.9349 17.287 14.8489 18.201 14.5439 19.115C14.5439 20.335 13.6299 20.944 12.7149 21.553C12.7149 21.553 12.4109 21.858 12.1049 21.858C8.75293 23.382 6.31493 24.601 4.48693 26.43C4.18193 27.04 3.87693 27.649 3.87693 28.258C3.87693 29.172 4.18193 29.782 4.79093 30.087C5.40093 30.391 6.01093 30.697 6.92493 31.001C8.14393 31.611 9.66793 31.915 11.1909 31.915H17.5909C18.5059 31.915 19.1149 32.525 19.1149 33.439C19.1149 34.353 18.5049 34.963 17.5909 34.963L17.5899 34.962Z" fill="#FF7332"/>
<path fill-rule="evenodd" clip-rule="evenodd" d="M37.3999 61.476H24.9049C22.1619 61.476 19.7239 61.171 17.5899 60.257C16.0669 59.647 14.8479 59.038 13.9329 58.124C12.1049 57.21 11.1899 55.076 11.1899 52.943C11.1899 51.114 11.7999 49.59 13.0189 48.067C15.4569 45.324 19.4189 43.19 24.9049 41.362L25.8189 40.448L24.9049 39.533C20.9429 34.353 19.1149 29.781 19.7239 25.514C20.3339 22.771 21.5519 20.334 23.9899 18.504C27.9519 15.762 34.0479 15.762 37.7049 18.504C40.1429 20.334 41.6669 22.771 41.9709 25.514C42.5809 29.781 40.7519 34.657 37.0949 39.534C36.1809 40.448 36.1809 40.752 36.1809 40.752C36.1809 40.752 36.7909 41.057 37.0949 41.362C42.5809 43.19 46.5429 45.324 48.9809 48.067C50.1999 49.286 50.8099 51.114 50.8099 52.943C50.8099 55.076 49.8949 57.21 48.3709 58.429C47.4569 59.343 46.2379 59.952 44.7139 60.562C42.2759 61.172 39.8379 61.476 37.3999 61.476ZM30.9999 19.114C29.1709 19.114 27.3429 19.724 25.8189 20.638C23.9899 21.858 23.0759 23.686 22.7709 25.819C22.4669 29.171 23.9909 33.133 27.0379 37.4C27.9519 38.314 28.8669 39.229 28.5619 40.752C28.5619 41.972 27.3419 42.886 26.4289 43.8C26.4289 43.8 26.1239 44.105 25.8189 44.105C20.6389 45.629 17.2859 47.762 14.8479 50.2C14.5429 50.81 14.2379 52.029 14.2379 52.943C14.2379 54.162 14.8479 55.381 15.7619 55.99C16.3719 56.6 17.5899 57.21 18.8099 57.514C20.6379 58.124 22.7709 58.429 24.9049 58.429H37.3999C39.5329 58.429 41.6669 58.124 43.4949 57.514C44.7149 57.21 45.6289 56.6 46.5429 55.99C47.4569 55.381 48.0669 54.162 48.0669 52.943C48.0669 52.029 47.7619 50.81 46.8469 50.2C44.7139 47.762 41.0569 45.933 35.8769 44.105C35.5709 44.105 35.5709 43.8 35.2669 43.8C34.3519 42.886 33.1329 41.971 33.1329 40.752C33.1329 39.533 34.0479 38.314 34.9619 37.4C38.0099 33.438 39.5329 29.171 39.2289 25.819C38.9239 23.686 38.0089 22.162 36.1809 20.639C34.6569 19.724 32.8289 19.114 30.9999 19.114Z" fill="#FF7332"/>
</g>
<defs>
<clipPath id="clip0_41_18">
<rect width="62" height="62" fill="white"/>
</clipPath>
</defs>
</svg>
